<?xml version="1.0" encoding="UTF-8" standalone="no"?>
<svg
   xmlns:dc="http://purl.org/dc/elements/1.1/"
   xmlns:cc="http://creativecommons.org/ns#"
   xmlns:rdf="http://www.w3.org/1999/02/22-rdf-syntax-ns#"
   xmlns:svg="http://www.w3.org/2000/svg"
   xmlns="http://www.w3.org/2000/svg"
   xmlns:sodipodi="http://sodipodi.sourceforge.net/DTD/sodipodi-0.dtd"
   xmlns:inkscape="http://www.inkscape.org/namespaces/inkscape"
   version="1.1"
   id="svg2"
   xml:space="preserve"
   width="497.92001"
   height="410.54666"
   viewBox="0 0 497.92001 410.54666"
   sodipodi:docname="Construction_(538).eps"><metadata
     id="metadata8"><rdf:RDF><cc:Work
         rdf:about=""><dc:format>image/svg+xml</dc:format><dc:type
           rdf:resource="http://purl.org/dc/dcmitype/StillImage" /></cc:Work></rdf:RDF></metadata><defs
     id="defs6" /><sodipodi:namedview
     pagecolor="#ffffff"
     bordercolor="#666666"
     borderopacity="1"
     objecttolerance="10"
     gridtolerance="10"
     guidetolerance="10"
     inkscape:pageopacity="0"
     inkscape:pageshadow="2"
     inkscape:window-width="640"
     inkscape:window-height="480"
     id="namedview4" /><g
     id="g10"
     inkscape:groupmode="layer"
     inkscape:label="ink_ext_XXXXXX"
     transform="matrix(1.3333333,0,0,-1.3333333,0,410.54667)"><g
       id="g12"
       transform="scale(0.1)"><path
         d="m 1431.31,2967.66 21.39,28.88 414.5,-307.14 -21.39,-28.86 -414.5,307.12"
         style="fill:#3f444f;fill-opacity:1;fill-rule:evenodd;stroke:none"
         id="path14" /><path
         d="m 2303.09,2967.66 -21.4,28.88 -414.49,-307.14 21.39,-28.86 414.5,307.12"
         style="fill:#3f444f;fill-opacity:1;fill-rule:evenodd;stroke:none"
         id="path16" /><path
         d="m 1841.85,2547.14 h 50.93 v 411.18 h -50.93 v -411.18"
         style="fill:#3f444f;fill-opacity:1;fill-rule:evenodd;stroke:none"
         id="path18" /><path
         d="m 1333.62,3055.12 h 1067.15 c 29.16,0 53.01,-23.85 53.01,-53.01 v 0 c 0,-29.16 -23.85,-53.01 -53.01,-53.01 H 1333.62 c -29.15,0 -53,23.85 -53,53.01 v 0 c 0,29.16 23.85,53.01 53,53.01"
         style="fill:#fbe066;fill-opacity:1;fill-rule:evenodd;stroke:none"
         id="path20" /><path
         d="M 2400.77,3031.12 H 1333.62 c -7.95,0 -15.2,-3.28 -20.47,-8.54 -5.26,-5.27 -8.54,-12.51 -8.54,-20.47 0,-7.95 3.28,-15.2 8.54,-20.47 l -0.04,-0.05 0.04,-0.04 c 5.21,-5.21 12.46,-8.45 20.47,-8.45 h 1067.15 c 8,0 15.26,3.25 20.52,8.49 5.24,5.27 8.5,12.52 8.5,20.52 0,7.96 -3.28,15.2 -8.55,20.47 l 0.05,0.05 c -5.26,5.24 -12.52,8.49 -20.52,8.49 z m -1067.15,48 h 1067.15 c 21.14,0 40.37,-8.66 54.32,-22.6 l 0.04,-0.05 0.05,0.05 c 13.94,-13.95 22.6,-33.21 22.6,-54.41 0,-21.13 -8.66,-40.37 -22.6,-54.31 l -0.09,-0.1 c -13.95,-13.94 -33.18,-22.6 -54.32,-22.6 H 1333.62 c -21.11,0 -40.36,8.67 -54.35,22.65 l -0.05,-0.05 c -13.95,13.95 -22.6,33.22 -22.6,54.41 0,21.2 8.65,40.46 22.6,54.41 13.94,13.94 33.21,22.6 54.4,22.6 v 0"
         style="fill:#3f444f;fill-opacity:1;fill-rule:nonzero;stroke:none"
         id="path22" /><path
         d="M 258.574,2431.68 V 444.488 H 708.109 V 1612.05 c 0,33.94 27.512,61.44 61.442,61.44 h 725.929 c -66.16,110.8 -104.17,240.35 -104.17,378.76 0,138.7 38.16,268.48 104.56,379.43 H 769.551 387.938 258.574"
         style="fill:#d2dadc;fill-opacity:1;fill-rule:nonzero;stroke:none"
         id="path24" /><path
         d="M 234.574,444.488 V 2431.68 c 0,13.25 10.746,24 24,24 h 129.364 381.613 726.319 v -0.08 c 4.19,0.01 8.43,-1.09 12.28,-3.39 11.34,-6.78 15.03,-21.48 8.26,-32.81 -32.65,-54.54 -58.24,-113.79 -75.52,-176.49 -16.67,-60.52 -25.58,-124.45 -25.58,-190.66 0,-66.14 8.87,-129.98 25.49,-190.37 17.01,-61.87 42.17,-120.44 74.25,-174.49 2.79,-3.92 4.43,-8.72 4.43,-13.9 0,-13.25 -10.74,-24 -24,-24 H 769.551 c -10.34,0 -19.707,-4.19 -26.481,-10.96 -6.765,-6.77 -10.961,-16.13 -10.961,-26.48 V 444.488 c 0,-13.25 -10.742,-24 -24,-24 H 258.574 c -13.254,0 -24,10.75 -24,24 z M 282.578,2407.68 V 468.488 H 684.109 V 1612.05 c 0,23.59 9.567,44.96 25.028,60.42 15.465,15.46 36.824,25.02 60.414,25.02 h 685.059 c -25.11,47.81 -45.31,98.64 -59.94,151.83 -17.83,64.84 -27.36,132.91 -27.36,202.93 0,70.24 9.56,138.46 27.46,203.41 14.66,53.22 34.95,104.11 60.18,152.02 H 769.551 387.938 282.578 v 0"
         style="fill:#3f444f;fill-opacity:1;fill-rule:nonzero;stroke:none"
         id="path26" /><path
         d="M 3026.29,1612.05 V 444.488 h 449.54 V 2431.68 h -129.37 -381.61 -750.31 c 66.39,-110.95 104.55,-240.73 104.55,-379.43 0,-138.52 -38.06,-268.15 -104.31,-379 l 744.67,0.01 c 1.78,0.15 3.59,0.23 5.4,0.23 33.94,0 61.44,-27.5 61.44,-61.44"
         style="fill:#d2dadc;fill-opacity:1;fill-rule:nonzero;stroke:none"
         id="path28" /><path
         d="M 3002.29,444.488 V 1612.05 c 0,10.35 -4.19,19.71 -10.96,26.48 -6.77,6.77 -16.13,10.96 -26.48,10.96 -1.65,0 -1.11,0.06 -1.66,0.04 -0.45,-0.02 -0.1,-0.04 -1.68,-0.18 l -0.01,0.09 c -0.67,-0.06 -1.35,-0.09 -2.05,-0.09 l -743.7,-0.01 c -4.5,-0.19 -9.1,0.89 -13.25,3.37 -11.34,6.79 -15.04,21.47 -8.25,32.82 32.59,54.52 58.11,113.69 75.33,176.21 16.63,60.44 25.52,124.32 25.52,190.51 0,66.21 -8.92,130.14 -25.59,190.65 -17.11,62.08 -42.36,120.78 -74.53,174.86 -2.79,3.93 -4.44,8.73 -4.44,13.92 0,13.25 10.74,24 24,24 h 750.31 381.61 129.37 c 13.25,0 23.99,-10.75 23.99,-24 V 444.488 c 0,-13.25 -10.74,-24 -23.99,-24 h -449.54 c -13.25,0 -24,10.75 -24,24 z m 48,1167.562 V 468.488 h 401.54 V 2407.68 h -105.37 -381.61 -709.39 c 25.22,-47.91 45.52,-98.8 60.17,-152.03 17.91,-64.94 27.47,-133.16 27.47,-203.4 0,-70.08 -9.55,-138.19 -27.4,-203.07 -14.66,-53.27 -34.92,-104.17 -60.08,-152.03 l 701.77,0.01 c 0.22,0.02 1.48,0.08 3.74,0.18 l 3.72,0.15 c 23.59,0 44.95,-9.56 60.41,-25.02 15.46,-15.46 25.03,-36.83 25.03,-60.42 v 0"
         style="fill:#3f444f;fill-opacity:1;fill-rule:nonzero;stroke:none"
         id="path30" /><path
         d="M 2964.85,467.332 H 2791.72 V 24 h 918.68 v 443.332 h -173.13 -572.42"
         style="fill:#afbec4;fill-opacity:1;fill-rule:nonzero;stroke:none"
         id="path32" /><path
         d="m 2791.72,491.328 h 918.68 c 13.25,0 24,-10.75 24,-23.996 L 3734.4,24 c 0,-13.25 -10.75,-24 -24,-24 h -918.68 c -13.26,0 -24.01,10.75 -24.01,24 v 443.332 c 0,13.246 10.75,23.996 24.01,23.996 z m 173.13,-48 H 2815.71 V 48.0117 H 3686.4 V 443.328 h -149.13 -572.42 v 0"
         style="fill:#3f444f;fill-opacity:1;fill-rule:nonzero;stroke:none"
         id="path34" /><path
         d="M 197.141,467.332 H 24 V 24 H 942.688 V 467.332 H 769.551 197.141"
         style="fill:#afbec4;fill-opacity:1;fill-rule:nonzero;stroke:none"
         id="path36" /><path
         d="m 24,491.328 h 918.688 c 13.253,0 24,-10.75 24,-23.996 V 24 c 0,-13.25 -10.747,-24 -24,-24 H 24 C 10.7461,0 0,10.75 0,24 v 443.332 c 0,13.246 10.7461,23.996 24,23.996 z m 173.141,-48 H 48.0039 V 48.0117 H 918.688 V 443.328 H 769.551 197.141 v 0"
         style="fill:#3f444f;fill-opacity:1;fill-rule:nonzero;stroke:none"
         id="path38" /><path
         d="m 1430.9,2488.56 c -111.66,-111.65 -180.72,-265.92 -180.72,-436.31 0,-170.38 69.06,-324.64 180.72,-436.3 111.65,-111.65 265.91,-180.72 436.3,-180.72 170.4,0 324.66,69.07 436.31,180.72 111.66,111.66 180.72,265.92 180.72,436.3 0,152.78 -55.52,292.58 -147.47,400.34 -0.35,0.4 -0.71,0.81 -1.05,1.22 -10.29,11.99 -21.03,23.58 -32.19,34.75 -111.66,111.66 -265.92,180.72 -436.32,180.72 -170.39,0 -324.65,-69.06 -436.3,-180.72"
         style="fill:#afbec4;fill-opacity:1;fill-rule:nonzero;stroke:none"
         id="path40" /><path
         d="m 1274.78,2297.32 c 32.55,78.6 80.15,149.21 139.15,208.21 58.99,59 129.61,106.6 208.21,139.15 75.61,31.32 158.39,48.61 245.06,48.61 86.68,0 169.46,-17.29 245.07,-48.61 78.59,-32.55 149.21,-80.15 208.21,-139.14 5.19,-5.2 10.87,-11.12 17.01,-17.74 l -0.06,-0.04 0.06,-0.05 c 6.17,-6.67 11.65,-12.79 16.41,-18.33 l 1.04,-1.23 c 48.69,-57.06 87.54,-122.72 113.93,-194.35 25.46,-69.1 39.36,-143.75 39.36,-221.55 0,-86.67 -17.28,-169.44 -48.6,-245.05 -32.56,-78.6 -80.15,-149.22 -139.15,-208.22 -59,-58.99 -129.62,-106.6 -208.21,-139.15 -75.61,-31.32 -158.39,-48.6 -245.07,-48.6 -86.67,0 -169.45,17.28 -245.06,48.6 -78.59,32.55 -149.22,80.16 -208.21,139.15 -59,59 -106.6,129.62 -139.15,208.21 -31.31,75.62 -48.6,158.4 -48.6,245.06 0,86.68 17.29,169.46 48.6,245.07 z m 173.09,174.28 c -54.78,-54.78 -98.85,-120.06 -128.84,-192.46 -28.9,-69.78 -44.85,-146.4 -44.85,-226.89 0,-80.47 15.95,-157.09 44.85,-226.87 29.99,-72.41 74.07,-137.7 128.84,-192.46 54.77,-54.78 120.05,-98.85 192.46,-128.84 69.77,-28.9 146.39,-44.84 226.87,-44.84 80.49,0 157.11,15.94 226.87,44.84 72.41,29.99 137.7,74.06 192.47,128.84 54.77,54.76 98.85,120.05 128.84,192.46 28.9,69.78 44.84,146.4 44.84,226.87 0,72.15 -12.84,141.22 -36.34,205.05 -24.44,66.31 -60.34,127.03 -105.31,179.72 l -1.05,1.23 c -5.5,6.42 -10.52,12.07 -15.06,16.96 l -0.04,-0.03 c -4.61,4.96 -9.9,10.45 -15.88,16.42 -54.77,54.77 -120.06,98.84 -192.46,128.83 -69.77,28.9 -146.39,44.85 -226.88,44.85 -80.48,0 -157.1,-15.95 -226.87,-44.85 -72.41,-29.99 -137.7,-74.06 -192.46,-128.83 v 0"
         style="fill:#3f444f;fill-opacity:1;fill-rule:nonzero;stroke:none"
         id="path42" /><path
         d="m 1558.69,2360.77 c -78.96,-78.95 -127.79,-188.03 -127.79,-308.52 0,-120.48 48.83,-229.56 127.79,-308.51 78.95,-78.95 188.03,-127.78 308.51,-127.78 120.49,0 229.57,48.83 308.52,127.78 78.96,78.95 127.79,188.03 127.79,308.51 0,108.04 -39.26,206.89 -104.28,283.08 -0.26,0.29 -0.5,0.58 -0.73,0.87 -7.29,8.48 -14.88,16.68 -22.78,24.57 -78.95,78.96 -188.03,127.79 -308.52,127.79 -120.48,0 -229.56,-48.83 -308.51,-127.79"
         style="fill:#d2dadc;fill-opacity:1;fill-rule:nonzero;stroke:none"
         id="path44" /><path
         d="m 1441.82,2228.21 c 23.39,56.48 57.56,107.2 99.9,149.53 42.34,42.34 93.06,76.52 149.53,99.9 54.33,22.5 113.76,34.92 175.95,34.92 62.19,0 121.63,-12.42 175.95,-34.92 56.48,-23.38 107.2,-57.56 149.55,-99.9 2.56,-2.57 6.22,-6.4 10.95,-11.5 0.41,-0.39 0.82,-0.8 1.22,-1.22 3.88,-4.19 7.83,-8.62 11.81,-13.26 l 0.74,-0.87 c 34.96,-40.98 62.87,-88.12 81.82,-139.56 18.28,-49.64 28.27,-103.24 28.27,-159.08 0,-62.19 -12.42,-121.62 -34.92,-175.94 -23.39,-56.48 -57.56,-107.2 -99.9,-149.54 -42.34,-42.33 -93.06,-76.51 -149.54,-99.9 -54.32,-22.5 -113.76,-34.92 -175.95,-34.92 -62.19,0 -121.62,12.42 -175.95,34.92 -56.47,23.39 -107.19,57.57 -149.53,99.9 -42.34,42.34 -76.51,93.06 -99.9,149.54 -22.5,54.32 -34.92,113.76 -34.92,175.94 0,62.2 12.42,121.64 34.92,175.96 z m 133.83,115.6 c -38.11,-38.11 -68.76,-83.49 -89.59,-133.79 -20.07,-48.48 -31.16,-101.76 -31.16,-157.77 0,-56 11.09,-109.28 31.16,-157.75 20.83,-50.3 51.48,-95.68 89.59,-133.79 38.11,-38.11 83.5,-68.76 133.79,-89.59 48.48,-20.08 101.76,-31.17 157.76,-31.17 56,0 109.28,11.09 157.76,31.17 50.29,20.83 95.68,51.48 133.79,89.59 38.12,38.11 68.77,83.49 89.59,133.79 20.09,48.48 31.17,101.75 31.17,157.75 0,50.19 -8.92,98.22 -25.27,142.58 -16.98,46.11 -41.95,88.32 -73.2,124.94 l -0.74,0.87 c -3.29,3.84 -6.79,7.76 -10.5,11.75 -0.38,0.42 -0.74,0.84 -1.09,1.27 -2.28,2.41 -5.6,5.8 -9.95,10.15 -38.12,38.11 -83.5,68.76 -133.8,89.59 -48.48,20.08 -101.76,31.16 -157.76,31.16 -56,0 -109.28,-11.08 -157.76,-31.16 -50.29,-20.83 -95.68,-51.48 -133.79,-89.59 v 0"
         style="fill:#3f444f;fill-opacity:1;fill-rule:nonzero;stroke:none"
         id="path46" /><path
         d="M 3383.56,2407.68 V 491.328 h 68.27 V 2407.68 h -68.27"
         style="fill:#979ea2;fill-opacity:1;fill-rule:evenodd;stroke:none"
         id="path48" /><path
         d="m 3686.4,443.328 h -68.27 V 48.0117 h 68.27 V 443.328"
         style="fill:#808d93;fill-opacity:1;fill-rule:evenodd;stroke:none"
         id="path50" /><path
         d="m 2460.22,2052.25 c 0,72.15 -12.84,141.22 -36.34,205.05 -20.01,54.33 -47.74,104.9 -81.83,150.38 -6.12,8.16 -12.45,16.17 -18.97,24 -1.5,1.78 -2.99,3.57 -4.51,5.34 l -1.05,1.23 c -5.5,6.42 -10.52,12.07 -15.06,16.96 l -0.04,-0.03 c -0.15,0.16 -0.31,0.33 -0.47,0.5 -4.49,4.83 -9.64,10.14 -15.41,15.92 -54.77,54.77 -120.06,98.84 -192.46,128.83 -10.27,4.25 -20.68,8.23 -31.24,11.91 52.08,-29.04 99.64,-65.07 141.38,-106.8 5.19,-5.2 10.87,-11.12 17,-17.74 l -0.05,-0.04 0.05,-0.05 c 6.17,-6.67 11.66,-12.79 16.41,-18.33 l 1.05,-1.23 c 3.51,-4.12 6.96,-8.27 10.37,-12.47 6.37,-7.85 12.55,-15.85 18.55,-24 5.78,-7.87 11.39,-15.87 16.82,-24 27.7,-41.49 50.69,-86.37 68.19,-133.88 25.45,-69.1 39.35,-143.75 39.35,-221.55 0,-86.67 -17.28,-169.44 -48.6,-245.05 -16.06,-38.77 -35.77,-75.6 -58.71,-110.05 -5.4,-8.1 -10.97,-16.07 -16.72,-23.9 -5.96,-8.12 -12.09,-16.09 -18.41,-23.91 -14.22,-17.59 -29.35,-34.4 -45.31,-50.36 -41.73,-41.73 -89.29,-77.77 -141.37,-106.8 10.55,3.68 20.97,7.65 31.23,11.9 72.41,29.99 137.7,74.06 192.47,128.84 5.37,5.37 10.65,10.85 15.81,16.42 7.21,7.78 14.21,15.75 21,23.91 6.5,7.8 12.79,15.77 18.9,23.9 29.45,39.3 54.12,82.34 73.13,128.23 28.9,69.78 44.84,146.4 44.84,226.87"
         style="fill:#808d93;fill-opacity:1;fill-rule:evenodd;stroke:none"
         id="path52" /><path
         d="m 2279.51,2052.25 c 0,50.19 -8.92,98.22 -25.27,142.58 -16.98,46.11 -41.95,88.32 -73.2,124.94 l -0.74,0.87 c -3.29,3.84 -6.79,7.76 -10.5,11.75 l -1.09,1.27 c -2.28,2.41 -5.6,5.8 -9.95,10.15 -38.12,38.11 -83.5,68.76 -133.8,89.59 -11.84,4.9 -23.97,9.28 -36.37,13.08 32.09,-19.36 61.58,-42.48 87.84,-68.74 2.57,-2.57 6.22,-6.4 10.95,-11.5 l 1.22,-1.22 c 3.89,-4.19 7.84,-8.62 11.81,-13.26 l 0.74,-0.87 c 34.97,-40.98 62.87,-88.12 81.82,-139.56 18.29,-49.64 28.27,-103.24 28.27,-159.08 0,-62.19 -12.41,-121.62 -34.91,-175.94 -23.39,-56.48 -57.57,-107.2 -99.9,-149.54 -26.26,-26.26 -55.76,-49.37 -87.84,-68.73 12.4,3.8 24.53,8.17 36.37,13.08 50.29,20.83 95.68,51.48 133.79,89.59 38.12,38.11 68.77,83.49 89.59,133.79 20.09,48.48 31.17,101.75 31.17,157.75"
         style="fill:#979ea2;fill-opacity:1;fill-rule:evenodd;stroke:none"
         id="path54" /><path
         d="m 2355.8,2973.1 h 44.97 c 8,0 15.26,3.25 20.52,8.49 5.24,5.27 8.5,12.52 8.5,20.52 0,7.96 -3.28,15.2 -8.55,20.47 l 0.05,0.05 c -5.26,5.24 -12.52,8.49 -20.52,8.49 h -44.94 c 3.66,-8.96 5.68,-18.76 5.68,-29.01 0,-10.25 -2.03,-20.05 -5.71,-29.01"
         style="fill:#f2a756;fill-opacity:1;fill-rule:evenodd;stroke:none"
         id="path56" /></g></g></svg>
